M48
; DRILL file {KiCad 8.0.7} date 2024-12-27T16:51:49+1000
; FORMAT={-:-/ absolute / inch / decimal}
; #@! TF.CreationDate,2024-12-27T16:51:49+10:00
; #@! TF.GenerationSoftware,Kicad,Pcbnew,8.0.7
; #@! TF.FileFunction,Plated,1,2,PTH
FMAT,2
INCH
; #@! TA.AperFunction,Plated,PTH,ViaDrill
T1C0.0236
; #@! TA.AperFunction,Plated,PTH,ComponentDrill
T2C0.0350
; #@! TA.AperFunction,Plated,PTH,ComponentDrill
T3C0.0374
; #@! TA.AperFunction,Plated,PTH,ComponentDrill
T4C0.0394
%
G90
G05
T1
X4.5079Y-2.0079
X4.6457Y-2.0079
X4.685Y-2.2244
X4.9016Y-2.5394
X4.9213Y-2.6181
X4.9803Y-2.2244
X5.0591Y-2.2835
T2
X4.4441Y-2.1409
X4.4441Y-2.7409
X4.5441Y-2.1409
X4.5441Y-2.7409
X4.6441Y-2.1409
X4.6441Y-2.7409
X4.7441Y-2.1409
X4.7441Y-2.7409
X4.8441Y-2.1409
X4.8441Y-2.7409
X4.9441Y-2.1409
X4.9441Y-2.7409
X5.0441Y-2.1409
X5.0441Y-2.7409
T3
X4.0955Y-2.1949
X4.0955Y-2.2933
X4.0955Y-2.3917
X4.0955Y-2.4902
X5.3937Y-2.126
X5.3937Y-2.2244
X5.3937Y-2.3228
X5.3937Y-2.4213
X5.3937Y-2.5197
X5.3937Y-2.6181
X5.3937Y-2.7165
X5.3937Y-2.815
X5.3937Y-2.9134
X5.7677Y-2.2047
X5.7677Y-2.3031
X5.7677Y-2.4016
T4
X4.2665Y-1.8201
X4.2665Y-1.9201
X4.3665Y-1.8201
X4.3665Y-1.9201
X4.4665Y-1.8201
X4.4665Y-1.9201
X4.5665Y-1.8201
X4.5665Y-1.9201
X4.6665Y-1.8201
X4.6665Y-1.9201
X4.7665Y-1.8201
X4.7665Y-1.9201
X4.8665Y-1.8201
X4.8665Y-1.9201
X4.9665Y-1.8201
X4.9665Y-1.9201
X5.0665Y-1.8201
X5.0665Y-1.9201
X5.1665Y-1.8201
X5.1665Y-1.9201
X5.2665Y-1.8201
X5.2665Y-1.9201
X5.3665Y-1.8201
X5.3665Y-1.9201
X5.4665Y-1.8201
X5.4665Y-1.9201
X5.5665Y-1.8201
X5.5665Y-1.9201
X5.6665Y-1.8201
X5.6665Y-1.9201
X5.7665Y-1.8201
X5.7665Y-1.9201
X5.8665Y-1.8201
X5.8665Y-1.9201
X5.9665Y-1.8201
X5.9665Y-1.9201
X6.0433Y-2.1654
X6.0433Y-2.3425
X6.0665Y-1.8201
X6.0665Y-1.9201
X6.1433Y-2.1654
X6.1433Y-2.3425
X6.1665Y-1.8201
X6.1665Y-1.9201
X6.2433Y-2.1654
X6.2433Y-2.3425
M30
