G04 #@! TF.GenerationSoftware,KiCad,Pcbnew,8.0.7*
G04 #@! TF.CreationDate,2024-12-27T16:52:24+10:00*
G04 #@! TF.ProjectId,Input Board,496e7075-7420-4426-9f61-72642e6b6963,rev?*
G04 #@! TF.SameCoordinates,Original*
G04 #@! TF.FileFunction,Soldermask,Top*
G04 #@! TF.FilePolarity,Negative*
%FSLAX46Y46*%
G04 Gerber Fmt 4.6, Leading zero omitted, Abs format (unit mm)*
G04 Created by KiCad (PCBNEW 8.0.7) date 2024-12-27 16:52:24*
%MOMM*%
%LPD*%
G01*
G04 APERTURE LIST*
G04 Aperture macros list*
%AMRoundRect*
0 Rectangle with rounded corners*
0 $1 Rounding radius*
0 $2 $3 $4 $5 $6 $7 $8 $9 X,Y pos of 4 corners*
0 Add a 4 corners polygon primitive as box body*
4,1,4,$2,$3,$4,$5,$6,$7,$8,$9,$2,$3,0*
0 Add four circle primitives for the rounded corners*
1,1,$1+$1,$2,$3*
1,1,$1+$1,$4,$5*
1,1,$1+$1,$6,$7*
1,1,$1+$1,$8,$9*
0 Add four rect primitives between the rounded corners*
20,1,$1+$1,$2,$3,$4,$5,0*
20,1,$1+$1,$4,$5,$6,$7,0*
20,1,$1+$1,$6,$7,$8,$9,0*
20,1,$1+$1,$8,$9,$2,$3,0*%
G04 Aperture macros list end*
%ADD10RoundRect,0.152400X0.609600X-1.063600X0.609600X1.063600X-0.609600X1.063600X-0.609600X-1.063600X0*%
%ADD11C,1.524000*%
%ADD12RoundRect,0.152400X-0.609600X1.063600X-0.609600X-1.063600X0.609600X-1.063600X0.609600X1.063600X0*%
%ADD13O,1.950000X1.700000*%
%ADD14RoundRect,0.250000X-0.725000X0.600000X-0.725000X-0.600000X0.725000X-0.600000X0.725000X0.600000X0*%
%ADD15R,1.700000X1.700000*%
%ADD16O,1.700000X1.700000*%
%ADD17C,2.700000*%
G04 APERTURE END LIST*
D10*
X112880000Y-53545000D03*
D11*
X112880000Y-54380000D03*
D10*
X115420000Y-53545000D03*
D11*
X115420000Y-54380000D03*
D10*
X117960000Y-53545000D03*
D11*
X117960000Y-54380000D03*
D10*
X120500000Y-53545000D03*
D11*
X120500000Y-54380000D03*
D10*
X123040000Y-53545000D03*
D11*
X123040000Y-54380000D03*
D10*
X125580000Y-53545000D03*
D11*
X125580000Y-54380000D03*
D10*
X128120000Y-53545000D03*
D11*
X128120000Y-54380000D03*
X128120000Y-69620000D03*
D12*
X128120000Y-70455000D03*
D11*
X125580000Y-69620000D03*
D12*
X125580000Y-70455000D03*
D11*
X123040000Y-69620000D03*
D12*
X123040000Y-70455000D03*
D11*
X120500000Y-69620000D03*
D12*
X120500000Y-70455000D03*
D11*
X117960000Y-69620000D03*
D12*
X117960000Y-70455000D03*
D11*
X115420000Y-69620000D03*
D12*
X115420000Y-70455000D03*
D11*
X112880000Y-69620000D03*
D12*
X112880000Y-70455000D03*
D13*
X137000000Y-74000000D03*
X137000000Y-71500000D03*
X137000000Y-69000000D03*
X137000000Y-66500000D03*
X137000000Y-64000000D03*
X137000000Y-61500000D03*
X137000000Y-59000000D03*
X137000000Y-56500000D03*
D14*
X137000000Y-54000000D03*
X104025000Y-55750000D03*
D13*
X104025000Y-58250000D03*
X104025000Y-60750000D03*
X104025000Y-63250000D03*
X146500000Y-61000000D03*
X146500000Y-58500000D03*
D14*
X146500000Y-56000000D03*
D15*
X153500000Y-59500000D03*
D16*
X156040000Y-59500000D03*
X158580000Y-59500000D03*
D15*
X153500000Y-55000000D03*
D16*
X156040000Y-55000000D03*
X158580000Y-55000000D03*
D17*
X161500000Y-47500000D03*
D16*
X156630000Y-46230000D03*
X156630000Y-48770000D03*
X154090000Y-46230000D03*
X154090000Y-48770000D03*
X151550000Y-46230000D03*
X151550000Y-48770000D03*
X149010000Y-46230000D03*
X149010000Y-48770000D03*
X146470000Y-46230000D03*
X146470000Y-48770000D03*
X143930000Y-46230000D03*
X143930000Y-48770000D03*
X141390000Y-46230000D03*
X141390000Y-48770000D03*
X138850000Y-46230000D03*
X138850000Y-48770000D03*
X136310000Y-46230000D03*
X136310000Y-48770000D03*
X133770000Y-46230000D03*
X133770000Y-48770000D03*
X131230000Y-46230000D03*
X131230000Y-48770000D03*
X128690000Y-46230000D03*
X128690000Y-48770000D03*
X126150000Y-46230000D03*
X126150000Y-48770000D03*
X123610000Y-46230000D03*
X123610000Y-48770000D03*
X121070000Y-46230000D03*
X121070000Y-48770000D03*
X118530000Y-46230000D03*
X118530000Y-48770000D03*
X115990000Y-46230000D03*
X115990000Y-48770000D03*
X113450000Y-46230000D03*
X113450000Y-48770000D03*
X110910000Y-46230000D03*
X110910000Y-48770000D03*
X108370000Y-46230000D03*
D15*
X108370000Y-48770000D03*
D17*
X103500000Y-47500000D03*
M02*
