G04 #@! TF.GenerationSoftware,KiCad,Pcbnew,8.0.7*
G04 #@! TF.CreationDate,2024-12-27T16:52:24+10:00*
G04 #@! TF.ProjectId,Input Board,496e7075-7420-4426-9f61-72642e6b6963,rev?*
G04 #@! TF.SameCoordinates,Original*
G04 #@! TF.FileFunction,Copper,L1,Top*
G04 #@! TF.FilePolarity,Positive*
%FSLAX46Y46*%
G04 Gerber Fmt 4.6, Leading zero omitted, Abs format (unit mm)*
G04 Created by KiCad (PCBNEW 8.0.7) date 2024-12-27 16:52:24*
%MOMM*%
%LPD*%
G01*
G04 APERTURE LIST*
G04 Aperture macros list*
%AMRoundRect*
0 Rectangle with rounded corners*
0 $1 Rounding radius*
0 $2 $3 $4 $5 $6 $7 $8 $9 X,Y pos of 4 corners*
0 Add a 4 corners polygon primitive as box body*
4,1,4,$2,$3,$4,$5,$6,$7,$8,$9,$2,$3,0*
0 Add four circle primitives for the rounded corners*
1,1,$1+$1,$2,$3*
1,1,$1+$1,$4,$5*
1,1,$1+$1,$6,$7*
1,1,$1+$1,$8,$9*
0 Add four rect primitives between the rounded corners*
20,1,$1+$1,$2,$3,$4,$5,0*
20,1,$1+$1,$4,$5,$6,$7,0*
20,1,$1+$1,$6,$7,$8,$9,0*
20,1,$1+$1,$8,$9,$2,$3,0*%
G04 Aperture macros list end*
G04 #@! TA.AperFunction,SMDPad,CuDef*
%ADD10RoundRect,0.152400X0.609600X-1.063600X0.609600X1.063600X-0.609600X1.063600X-0.609600X-1.063600X0*%
G04 #@! TD*
G04 #@! TA.AperFunction,ComponentPad*
%ADD11C,1.524000*%
G04 #@! TD*
G04 #@! TA.AperFunction,SMDPad,CuDef*
%ADD12RoundRect,0.152400X-0.609600X1.063600X-0.609600X-1.063600X0.609600X-1.063600X0.609600X1.063600X0*%
G04 #@! TD*
G04 #@! TA.AperFunction,ComponentPad*
%ADD13O,1.950000X1.700000*%
G04 #@! TD*
G04 #@! TA.AperFunction,ComponentPad*
%ADD14RoundRect,0.250000X-0.725000X0.600000X-0.725000X-0.600000X0.725000X-0.600000X0.725000X0.600000X0*%
G04 #@! TD*
G04 #@! TA.AperFunction,ComponentPad*
%ADD15R,1.700000X1.700000*%
G04 #@! TD*
G04 #@! TA.AperFunction,ComponentPad*
%ADD16O,1.700000X1.700000*%
G04 #@! TD*
G04 #@! TA.AperFunction,ViaPad*
%ADD17C,0.900000*%
G04 #@! TD*
G04 #@! TA.AperFunction,Conductor*
%ADD18C,0.200000*%
G04 #@! TD*
G04 #@! TA.AperFunction,Conductor*
%ADD19C,0.500000*%
G04 #@! TD*
G04 APERTURE END LIST*
D10*
X112880000Y-53545000D03*
D11*
X112880000Y-54380000D03*
D10*
X115420000Y-53545000D03*
D11*
X115420000Y-54380000D03*
D10*
X117960000Y-53545000D03*
D11*
X117960000Y-54380000D03*
D10*
X120500000Y-53545000D03*
D11*
X120500000Y-54380000D03*
D10*
X123040000Y-53545000D03*
D11*
X123040000Y-54380000D03*
D10*
X125580000Y-53545000D03*
D11*
X125580000Y-54380000D03*
D10*
X128120000Y-53545000D03*
D11*
X128120000Y-54380000D03*
X128120000Y-69620000D03*
D12*
X128120000Y-70455000D03*
D11*
X125580000Y-69620000D03*
D12*
X125580000Y-70455000D03*
D11*
X123040000Y-69620000D03*
D12*
X123040000Y-70455000D03*
D11*
X120500000Y-69620000D03*
D12*
X120500000Y-70455000D03*
D11*
X117960000Y-69620000D03*
D12*
X117960000Y-70455000D03*
D11*
X115420000Y-69620000D03*
D12*
X115420000Y-70455000D03*
D11*
X112880000Y-69620000D03*
D12*
X112880000Y-70455000D03*
D13*
X137000000Y-74000000D03*
X137000000Y-71500000D03*
X137000000Y-69000000D03*
X137000000Y-66500000D03*
X137000000Y-64000000D03*
X137000000Y-61500000D03*
X137000000Y-59000000D03*
X137000000Y-56500000D03*
D14*
X137000000Y-54000000D03*
X104025000Y-55750000D03*
D13*
X104025000Y-58250000D03*
X104025000Y-60750000D03*
X104025000Y-63250000D03*
X146500000Y-61000000D03*
X146500000Y-58500000D03*
D14*
X146500000Y-56000000D03*
D15*
X153500000Y-59500000D03*
D16*
X156040000Y-59500000D03*
X158580000Y-59500000D03*
D15*
X153500000Y-55000000D03*
D16*
X156040000Y-55000000D03*
X158580000Y-55000000D03*
X156630000Y-46230000D03*
X156630000Y-48770000D03*
X154090000Y-46230000D03*
X154090000Y-48770000D03*
X151550000Y-46230000D03*
X151550000Y-48770000D03*
X149010000Y-46230000D03*
X149010000Y-48770000D03*
X146470000Y-46230000D03*
X146470000Y-48770000D03*
X143930000Y-46230000D03*
X143930000Y-48770000D03*
X141390000Y-46230000D03*
X141390000Y-48770000D03*
X138850000Y-46230000D03*
X138850000Y-48770000D03*
X136310000Y-46230000D03*
X136310000Y-48770000D03*
X133770000Y-46230000D03*
X133770000Y-48770000D03*
X131230000Y-46230000D03*
X131230000Y-48770000D03*
X128690000Y-46230000D03*
X128690000Y-48770000D03*
X126150000Y-46230000D03*
X126150000Y-48770000D03*
X123610000Y-46230000D03*
X123610000Y-48770000D03*
X121070000Y-46230000D03*
X121070000Y-48770000D03*
X118530000Y-46230000D03*
X118530000Y-48770000D03*
X115990000Y-46230000D03*
X115990000Y-48770000D03*
X113450000Y-46230000D03*
X113450000Y-48770000D03*
X110910000Y-46230000D03*
X110910000Y-48770000D03*
X108370000Y-46230000D03*
D15*
X108370000Y-48770000D03*
D17*
X124500000Y-64500000D03*
X125000000Y-66500000D03*
X119000000Y-56500000D03*
X128500000Y-58000000D03*
X126500000Y-56500000D03*
X118000000Y-51000000D03*
X114500000Y-51000000D03*
D18*
X150190000Y-65350000D02*
X156040000Y-59500000D01*
X129850000Y-65350000D02*
X150190000Y-65350000D01*
X125580000Y-69620000D02*
X129850000Y-65350000D01*
X148000000Y-62650000D02*
X155650000Y-55000000D01*
X126350000Y-62650000D02*
X148000000Y-62650000D01*
X155650000Y-55000000D02*
X156040000Y-55000000D01*
X124500000Y-64500000D02*
X126350000Y-62650000D01*
X123040000Y-68460000D02*
X125000000Y-66500000D01*
X123040000Y-69620000D02*
X123040000Y-68460000D01*
X137000000Y-64000000D02*
X126120000Y-64000000D01*
X126120000Y-64000000D02*
X120500000Y-69620000D01*
X117140000Y-45080000D02*
X115990000Y-46230000D01*
X122953654Y-49980000D02*
X122220000Y-49246346D01*
X124797630Y-49980000D02*
X122953654Y-49980000D01*
X122220000Y-49246346D02*
X122220000Y-45720000D01*
X122220000Y-45720000D02*
X121580000Y-45080000D01*
X121580000Y-45080000D02*
X117140000Y-45080000D01*
X128120000Y-54380000D02*
X128120000Y-53302370D01*
X128120000Y-53302370D02*
X124797630Y-49980000D01*
X119920000Y-49580000D02*
X119920000Y-47620000D01*
X119022000Y-50478000D02*
X119920000Y-49580000D01*
X119920000Y-47620000D02*
X118530000Y-46230000D01*
X119000000Y-56500000D02*
X119022000Y-56478000D01*
X119022000Y-56478000D02*
X119022000Y-50478000D01*
X125500000Y-58000000D02*
X128500000Y-58000000D01*
X124000000Y-56500000D02*
X125500000Y-58000000D01*
X123040000Y-55540000D02*
X124000000Y-56500000D01*
X123040000Y-54380000D02*
X123040000Y-55540000D01*
X125580000Y-55580000D02*
X126500000Y-56500000D01*
X125580000Y-54380000D02*
X125580000Y-55580000D01*
X126040000Y-59000000D02*
X137000000Y-59000000D01*
X115420000Y-69620000D02*
X126040000Y-59000000D01*
X126080000Y-61500000D02*
X137000000Y-61500000D01*
X117960000Y-69620000D02*
X126080000Y-61500000D01*
X137000000Y-68340000D02*
X137000000Y-69000000D01*
X120500000Y-54380000D02*
X120500000Y-53302370D01*
X113450000Y-49550000D02*
X113450000Y-48770000D01*
X105300000Y-59475000D02*
X105300000Y-57700000D01*
X105300000Y-57700000D02*
X113450000Y-49550000D01*
X104025000Y-60750000D02*
X105300000Y-59475000D01*
X104025000Y-58250000D02*
X110910000Y-51365000D01*
X110910000Y-51365000D02*
X110910000Y-48770000D01*
D19*
X114500000Y-51000000D02*
X118000000Y-51000000D01*
D18*
X114153370Y-71971000D02*
X112880000Y-70697630D01*
X114153370Y-71971000D02*
X131529000Y-71971000D01*
X131529000Y-71971000D02*
X137000000Y-66500000D01*
X112880000Y-70697630D02*
X112880000Y-69620000D01*
M02*
