M48
; DRILL file {KiCad 8.0.7} date 2024-12-27T16:43:38+1000
; FORMAT={-:-/ absolute / inch / decimal}
; #@! TF.CreationDate,2024-12-27T16:43:38+10:00
; #@! TF.GenerationSoftware,Kicad,Pcbnew,8.0.7
; #@! TF.FileFunction,Plated,1,2,PTH
FMAT,2
INCH
; #@! TA.AperFunction,Plated,PTH,ComponentDrill
T1C0.0315
; #@! TA.AperFunction,Plated,PTH,ComponentDrill
T2C0.0374
; #@! TA.AperFunction,Plated,PTH,ComponentDrill
T3C0.0394
%
G90
G05
T1
X4.6409Y-3.4449
X4.6409Y-3.7795
X5.2409Y-3.4449
X5.2409Y-3.7795
T2
X5.7283Y-3.5236
X5.7283Y-3.622
X5.7283Y-3.7205
X5.7283Y-3.8189
X5.7283Y-3.9173
X5.7283Y-4.0157
X5.7283Y-4.1142
X5.7283Y-4.2126
X5.7283Y-4.311
T3
X4.2717Y-4.0551
X4.2717Y-4.2126
X4.2717Y-4.3701
X4.2913Y-3.4449
X4.2913Y-3.6024
X4.2913Y-3.7795
X4.7835Y-4.0551
X4.7835Y-4.2126
X4.7835Y-4.3898
X5.0787Y-4.0551
X5.0787Y-4.2126
X5.0787Y-4.3898
M30
